<svg xmlns="http://www.w3.org/2000/svg" width="401" height="489" viewBox="0 0 401.44 488.96" role="img"><title>ifuri — name it run it</title><line x1="93.12" y1="55.33" x2="161.08" y2="111.96" stroke="#1E1B4B" stroke-width="24.92" stroke-linecap="round"/><line x1="104.45" y1="179.91" x2="217.71" y2="44.00" stroke="#1E1B4B" stroke-width="24.92" stroke-linecap="round"/><line x1="195.06" y1="179.91" x2="308.32" y2="44.00" stroke="#1E1B4B" stroke-width="24.92" stroke-linecap="round"/><g transform="translate(58.67,352.80) scale(0.15000,-0.15000)"><path d="M60.0 697Q60.0 728 81.0 749.0Q102.0 770 133.0 770Q163.0 770 184.0 749.0Q205.0 728 205.0 697Q205.0 666 184.0 645.0Q163.0 624 133.0 624Q102.0 624 81.0 645.0Q60.0 666 60.0 697ZM189.0 551V0H75.0V551ZM570.0 458H468.0V0H353.0V458H288.0V551H353.0V590Q353.0 685 403.5 728.5Q454.0 772 562.0 772V677Q510.0 677 489.0 657.5Q468.0 638 468.0 590V551H570.0Z" fill="#1E1B4B"/><path d="M1170.0 551V0H1056.0V65Q1029.0 31 985.5 11.5Q942.0 -8 893.0 -8Q828.0 -8 776.5 19.0Q725.0 46 695.5 99.0Q666.0 152 666.0 227V551H779.0V244Q779.0 170 816.0 130.5Q853.0 91 917.0 91Q981.0 91 1018.5 130.5Q1056.0 170 1056.0 244V551ZM1599.0 560V442H1570.0Q1503.0 442 1468.5 408.0Q1434.0 374 1434.0 290V0H1320.0V551H1434.0V471Q1459.0 513 1500.5 536.5Q1542.0 560 1599.0 560ZM1689.0 697Q1689.0 728 1710.0 749.0Q1731.0 770 1762.0 770Q1792.0 770 1813.0 749.0Q1834.0 728 1834.0 697Q1834.0 666 1813.0 645.0Q1792.0 624 1762.0 624Q1731.0 624 1710.0 645.0Q1689.0 666 1689.0 697ZM1818.0 551V0H1704.0V551Z" fill="#1E1B4B"/></g><g transform="translate(40.30,444.53) scale(0.04800,-0.04800)"><path d="M568.0 323V0H478.0V310Q478.0 392 437.0 435.5Q396.0 479 325.0 479Q253.0 479 210.5 434.0Q168.0 389 168.0 303V0H77.0V548H168.0V470Q195.0 512 241.5 535.0Q288.0 558 344.0 558Q444.0 558 506.0 497.5Q568.0 437 568.0 323ZM943.0 557Q1015.0 557 1068.0 526.0Q1121.0 495 1147.0 448V548H1239.0V0H1147.0V102Q1120.0 54 1066.5 22.5Q1013.0 -9 942.0 -9Q869.0 -9 810.0 27.0Q751.0 63 717.0 128.0Q683.0 193 683.0 276Q683.0 360 717.0 423.5Q751.0 487 810.5 522.0Q870.0 557 943.0 557ZM961.0 478Q910.0 478 868.0 454.0Q826.0 430 801.0 384.0Q776.0 338 776.0 276Q776.0 213 801.0 166.5Q826.0 120 868.0 95.5Q910.0 71 961.0 71Q1012.0 71 1054.5 95.5Q1097.0 120 1122.0 166.5Q1147.0 213 1147.0 275Q1147.0 337 1122.0 383.0Q1097.0 429 1054.5 453.5Q1012.0 478 961.0 478ZM2274.0 323V0H2184.0V310Q2184.0 392 2143.5 435.5Q2103.0 479 2034.0 479Q1963.0 479 1921.0 433.5Q1879.0 388 1879.0 302V0H1789.0V310Q1789.0 392 1748.5 435.5Q1708.0 479 1639.0 479Q1568.0 479 1526.0 433.5Q1484.0 388 1484.0 302V0H1393.0V548H1484.0V469Q1511.0 512 1556.5 535.0Q1602.0 558 1657.0 558Q1726.0 558 1779.0 527.0Q1832.0 496 1858.0 436Q1881.0 494 1934.0 526.0Q1987.0 558 2052.0 558Q2116.0 558 2166.0 531.5Q2216.0 505 2245.0 452.0Q2274.0 399 2274.0 323ZM2920.0 240H2482.0Q2487.0 159 2537.5 113.5Q2588.0 68 2660.0 68Q2719.0 68 2758.5 95.5Q2798.0 123 2814.0 169H2912.0Q2890.0 90 2824.0 40.5Q2758.0 -9 2660.0 -9Q2582.0 -9 2520.5 26.0Q2459.0 61 2424.0 125.5Q2389.0 190 2389.0 275Q2389.0 360 2423.0 424.0Q2457.0 488 2518.5 522.5Q2580.0 557 2660.0 557Q2738.0 557 2798.0 523.0Q2858.0 489 2890.5 429.5Q2923.0 370 2923.0 295Q2923.0 269 2920.0 240ZM2656.0 480Q2587.0 480 2538.5 436.0Q2490.0 392 2483.0 314H2829.0Q2829.0 366 2806.0 403.5Q2783.0 441 2743.5 460.5Q2704.0 480 2656.0 480ZM3295.0 699Q3295.0 725 3313.0 743.0Q3331.0 761 3357.0 761Q3382.0 761 3399.5 743.0Q3417.0 725 3417.0 699Q3417.0 673 3399.5 655.0Q3382.0 637 3357.0 637Q3331.0 637 3313.0 655.0Q3295.0 673 3295.0 699ZM3401.0 548V0H3310.0V548ZM3667.0 473V150Q3667.0 110 3684.0 93.5Q3701.0 77 3743.0 77H3810.0V0H3728.0Q3652.0 0 3614.0 35.0Q3576.0 70 3576.0 150V473H3505.0V548H3576.0V686H3667.0V548H3810.0V473ZM4455.0 558V464H4431.0Q4278.0 464 4278.0 298V0H4187.0V548H4278.0V459Q4302.0 506 4346.5 532.0Q4391.0 558 4455.0 558ZM5046.0 548V0H4955.0V81Q4929.0 39 4882.5 15.5Q4836.0 -8 4780.0 -8Q4716.0 -8 4665.0 18.5Q4614.0 45 4584.5 98.0Q4555.0 151 4555.0 227V548H4645.0V239Q4645.0 158 4686.0 114.5Q4727.0 71 4798.0 71Q4871.0 71 4913.0 116.0Q4955.0 161 4955.0 247V548ZM5691.0 323V0H5601.0V310Q5601.0 392 5560.0 435.5Q5519.0 479 5448.0 479Q5376.0 479 5333.5 434.0Q5291.0 389 5291.0 303V0H5200.0V548H5291.0V470Q5318.0 512 5364.5 535.0Q5411.0 558 5467.0 558Q5567.0 558 5629.0 497.5Q5691.0 437 5691.0 323ZM6092.0 699Q6092.0 725 6110.0 743.0Q6128.0 761 6154.0 761Q6179.0 761 6196.5 743.0Q6214.0 725 6214.0 699Q6214.0 673 6196.5 655.0Q6179.0 637 6154.0 637Q6128.0 637 6110.0 655.0Q6092.0 673 6092.0 699ZM6198.0 548V0H6107.0V548ZM6464.0 473V150Q6464.0 110 6481.0 93.5Q6498.0 77 6540.0 77H6607.0V0H6525.0Q6449.0 0 6411.0 35.0Q6373.0 70 6373.0 150V473H6302.0V548H6373.0V686H6464.0V548H6607.0V473Z" fill="#64748B"/></g></svg>
