<svg xmlns="http://www.w3.org/2000/svg" width="616" height="200" viewBox="0 0 616.17 200.44" role="img"><title>ifuri</title><rect width="616.17" height="200.44" fill="#1E1B4B"/><line x1="34.00" y1="47.86" x2="98.68" y2="101.76" stroke="#FFFFFF" stroke-width="23.72" stroke-linecap="round"/><line x1="44.78" y1="166.44" x2="152.58" y2="37.08" stroke="#FFFFFF" stroke-width="23.72" stroke-linecap="round"/><line x1="131.02" y1="166.44" x2="238.83" y2="37.08" stroke="#34D399" stroke-width="23.72" stroke-linecap="round"/><g transform="translate(288.73,157.52) scale(0.16000,-0.16000)"><path d="M60.0 697Q60.0 728 81.0 749.0Q102.0 770 133.0 770Q163.0 770 184.0 749.0Q205.0 728 205.0 697Q205.0 666 184.0 645.0Q163.0 624 133.0 624Q102.0 624 81.0 645.0Q60.0 666 60.0 697ZM189.0 551V0H75.0V551ZM570.0 458H468.0V0H353.0V458H288.0V551H353.0V590Q353.0 685 403.5 728.5Q454.0 772 562.0 772V677Q510.0 677 489.0 657.5Q468.0 638 468.0 590V551H570.0Z" fill="#4F46E5"/><path d="M1170.0 551V0H1056.0V65Q1029.0 31 985.5 11.5Q942.0 -8 893.0 -8Q828.0 -8 776.5 19.0Q725.0 46 695.5 99.0Q666.0 152 666.0 227V551H779.0V244Q779.0 170 816.0 130.5Q853.0 91 917.0 91Q981.0 91 1018.5 130.5Q1056.0 170 1056.0 244V551ZM1599.0 560V442H1570.0Q1503.0 442 1468.5 408.0Q1434.0 374 1434.0 290V0H1320.0V551H1434.0V471Q1459.0 513 1500.5 536.5Q1542.0 560 1599.0 560ZM1689.0 697Q1689.0 728 1710.0 749.0Q1731.0 770 1762.0 770Q1792.0 770 1813.0 749.0Q1834.0 728 1834.0 697Q1834.0 666 1813.0 645.0Q1792.0 624 1762.0 624Q1731.0 624 1710.0 645.0Q1689.0 666 1689.0 697ZM1818.0 551V0H1704.0V551Z" fill="#FFFFFF"/></g></svg>
