<svg xmlns="http://www.w3.org/2000/svg" width="1224" height="542" viewBox="0 0 1224.00 542.00" role="img"><title>ifuri colour system</title><rect width="1224" height="542" fill="#FFFFFF"/><text x="40" y="34" font-family="ui-sans-serif,Arial" font-size="22" font-weight="600" fill="#1E1B4B">ifuri — colour system</text><text x="40" y="46" font-family="ui-sans-serif,Arial" font-size="14" font-weight="600" fill="#1E1B4B">primary</text><rect x="40" y="56" width="96" height="64" rx="8" fill="#EEF2FF"/><text x="48" y="78" font-family="ui-monospace,monospace" font-size="12" fill="#1E1B4B">50</text><text x="48" y="110" font-family="ui-monospace,monospace" font-size="11" fill="#1E1B4B">#EEF2FF</text><rect x="144" y="56" width="96" height="64" rx="8" fill="#E0E7FF"/><text x="152" y="78" font-family="ui-monospace,monospace" font-size="12" fill="#1E1B4B">100</text><text x="152" y="110" font-family="ui-monospace,monospace" font-size="11" fill="#1E1B4B">#E0E7FF</text><rect x="248" y="56" width="96" height="64" rx="8" fill="#C7D2FE"/><text x="256" y="78" font-family="ui-monospace,monospace" font-size="12" fill="#1E1B4B">200</text><text x="256" y="110" font-family="ui-monospace,monospace" font-size="11" fill="#1E1B4B">#C7D2FE</text><rect x="352" y="56" width="96" height="64" rx="8" fill="#A5B4FC"/><text x="360" y="78" font-family="ui-monospace,monospace" font-size="12" fill="#1E1B4B">300</text><text x="360" y="110" font-family="ui-monospace,monospace" font-size="11" fill="#1E1B4B">#A5B4FC</text><rect x="456" y="56" width="96" height="64" rx="8" fill="#818CF8"/><text x="464" y="78" font-family="ui-monospace,monospace" font-size="12" fill="#FFFFFF">400</text><text x="464" y="110" font-family="ui-monospace,monospace" font-size="11" fill="#FFFFFF">#818CF8</text><rect x="560" y="56" width="96" height="64" rx="8" fill="#6366F1"/><text x="568" y="78" font-family="ui-monospace,monospace" font-size="12" fill="#FFFFFF">500</text><text x="568" y="110" font-family="ui-monospace,monospace" font-size="11" fill="#FFFFFF">#6366F1</text><rect x="664" y="56" width="96" height="64" rx="8" fill="#4F46E5"/><text x="672" y="78" font-family="ui-monospace,monospace" font-size="12" fill="#FFFFFF">600</text><text x="672" y="110" font-family="ui-monospace,monospace" font-size="11" fill="#FFFFFF">#4F46E5</text><rect x="768" y="56" width="96" height="64" rx="8" fill="#4338CA"/><text x="776" y="78" font-family="ui-monospace,monospace" font-size="12" fill="#FFFFFF">700</text><text x="776" y="110" font-family="ui-monospace,monospace" font-size="11" fill="#FFFFFF">#4338CA</text><rect x="872" y="56" width="96" height="64" rx="8" fill="#3730A3"/><text x="880" y="78" font-family="ui-monospace,monospace" font-size="12" fill="#FFFFFF">800</text><text x="880" y="110" font-family="ui-monospace,monospace" font-size="11" fill="#FFFFFF">#3730A3</text><rect x="976" y="56" width="96" height="64" rx="8" fill="#312E81"/><text x="984" y="78" font-family="ui-monospace,monospace" font-size="12" fill="#FFFFFF">900</text><text x="984" y="110" font-family="ui-monospace,monospace" font-size="11" fill="#FFFFFF">#312E81</text><rect x="1080" y="56" width="96" height="64" rx="8" fill="#1E1B4B"/><text x="1088" y="78" font-family="ui-monospace,monospace" font-size="12" fill="#FFFFFF">950</text><text x="1088" y="110" font-family="ui-monospace,monospace" font-size="11" fill="#FFFFFF">#1E1B4B</text><text x="40" y="168" font-family="ui-sans-serif,Arial" font-size="14" font-weight="600" fill="#1E1B4B">accent</text><rect x="40" y="178" width="96" height="64" rx="8" fill="#ECFDF5"/><text x="48" y="200" font-family="ui-monospace,monospace" font-size="12" fill="#1E1B4B">50</text><text x="48" y="232" font-family="ui-monospace,monospace" font-size="11" fill="#1E1B4B">#ECFDF5</text><rect x="144" y="178" width="96" height="64" rx="8" fill="#D1FAE5"/><text x="152" y="200" font-family="ui-monospace,monospace" font-size="12" fill="#1E1B4B">100</text><text x="152" y="232" font-family="ui-monospace,monospace" font-size="11" fill="#1E1B4B">#D1FAE5</text><rect x="248" y="178" width="96" height="64" rx="8" fill="#A7F3D0"/><text x="256" y="200" font-family="ui-monospace,monospace" font-size="12" fill="#1E1B4B">200</text><text x="256" y="232" font-family="ui-monospace,monospace" font-size="11" fill="#1E1B4B">#A7F3D0</text><rect x="352" y="178" width="96" height="64" rx="8" fill="#6EE7B7"/><text x="360" y="200" font-family="ui-monospace,monospace" font-size="12" fill="#1E1B4B">300</text><text x="360" y="232" font-family="ui-monospace,monospace" font-size="11" fill="#1E1B4B">#6EE7B7</text><rect x="456" y="178" width="96" height="64" rx="8" fill="#34D399"/><text x="464" y="200" font-family="ui-monospace,monospace" font-size="12" fill="#1E1B4B">400</text><text x="464" y="232" font-family="ui-monospace,monospace" font-size="11" fill="#1E1B4B">#34D399</text><rect x="560" y="178" width="96" height="64" rx="8" fill="#10B981"/><text x="568" y="200" font-family="ui-monospace,monospace" font-size="12" fill="#FFFFFF">500</text><text x="568" y="232" font-family="ui-monospace,monospace" font-size="11" fill="#FFFFFF">#10B981</text><rect x="664" y="178" width="96" height="64" rx="8" fill="#059669"/><text x="672" y="200" font-family="ui-monospace,monospace" font-size="12" fill="#FFFFFF">600</text><text x="672" y="232" font-family="ui-monospace,monospace" font-size="11" fill="#FFFFFF">#059669</text><rect x="768" y="178" width="96" height="64" rx="8" fill="#047857"/><text x="776" y="200" font-family="ui-monospace,monospace" font-size="12" fill="#FFFFFF">700</text><text x="776" y="232" font-family="ui-monospace,monospace" font-size="11" fill="#FFFFFF">#047857</text><rect x="872" y="178" width="96" height="64" rx="8" fill="#065F46"/><text x="880" y="200" font-family="ui-monospace,monospace" font-size="12" fill="#FFFFFF">800</text><text x="880" y="232" font-family="ui-monospace,monospace" font-size="11" fill="#FFFFFF">#065F46</text><rect x="976" y="178" width="96" height="64" rx="8" fill="#064E3B"/><text x="984" y="200" font-family="ui-monospace,monospace" font-size="12" fill="#FFFFFF">900</text><text x="984" y="232" font-family="ui-monospace,monospace" font-size="11" fill="#FFFFFF">#064E3B</text><text x="40" y="290" font-family="ui-sans-serif,Arial" font-size="14" font-weight="600" fill="#1E1B4B">neutral</text><rect x="40" y="300" width="96" height="64" rx="8" fill="#F8FAFC"/><text x="48" y="322" font-family="ui-monospace,monospace" font-size="12" fill="#1E1B4B">50</text><text x="48" y="354" font-family="ui-monospace,monospace" font-size="11" fill="#1E1B4B">#F8FAFC</text><rect x="144" y="300" width="96" height="64" rx="8" fill="#F1F5F9"/><text x="152" y="322" font-family="ui-monospace,monospace" font-size="12" fill="#1E1B4B">100</text><text x="152" y="354" font-family="ui-monospace,monospace" font-size="11" fill="#1E1B4B">#F1F5F9</text><rect x="248" y="300" width="96" height="64" rx="8" fill="#E2E8F0"/><text x="256" y="322" font-family="ui-monospace,monospace" font-size="12" fill="#1E1B4B">200</text><text x="256" y="354" font-family="ui-monospace,monospace" font-size="11" fill="#1E1B4B">#E2E8F0</text><rect x="352" y="300" width="96" height="64" rx="8" fill="#CBD5E1"/><text x="360" y="322" font-family="ui-monospace,monospace" font-size="12" fill="#1E1B4B">300</text><text x="360" y="354" font-family="ui-monospace,monospace" font-size="11" fill="#1E1B4B">#CBD5E1</text><rect x="456" y="300" width="96" height="64" rx="8" fill="#94A3B8"/><text x="464" y="322" font-family="ui-monospace,monospace" font-size="12" fill="#1E1B4B">400</text><text x="464" y="354" font-family="ui-monospace,monospace" font-size="11" fill="#1E1B4B">#94A3B8</text><rect x="560" y="300" width="96" height="64" rx="8" fill="#64748B"/><text x="568" y="322" font-family="ui-monospace,monospace" font-size="12" fill="#FFFFFF">500</text><text x="568" y="354" font-family="ui-monospace,monospace" font-size="11" fill="#FFFFFF">#64748B</text><rect x="664" y="300" width="96" height="64" rx="8" fill="#475569"/><text x="672" y="322" font-family="ui-monospace,monospace" font-size="12" fill="#FFFFFF">600</text><text x="672" y="354" font-family="ui-monospace,monospace" font-size="11" fill="#FFFFFF">#475569</text><rect x="768" y="300" width="96" height="64" rx="8" fill="#334155"/><text x="776" y="322" font-family="ui-monospace,monospace" font-size="12" fill="#FFFFFF">700</text><text x="776" y="354" font-family="ui-monospace,monospace" font-size="11" fill="#FFFFFF">#334155</text><rect x="872" y="300" width="96" height="64" rx="8" fill="#1E293B"/><text x="880" y="322" font-family="ui-monospace,monospace" font-size="12" fill="#FFFFFF">800</text><text x="880" y="354" font-family="ui-monospace,monospace" font-size="11" fill="#FFFFFF">#1E293B</text><rect x="976" y="300" width="96" height="64" rx="8" fill="#0F172A"/><text x="984" y="322" font-family="ui-monospace,monospace" font-size="12" fill="#FFFFFF">900</text><text x="984" y="354" font-family="ui-monospace,monospace" font-size="11" fill="#FFFFFF">#0F172A</text><text x="40" y="412" font-family="ui-sans-serif,Arial" font-size="14" font-weight="600" fill="#1E1B4B">semantic</text><rect x="40" y="422" width="104" height="64" rx="8" fill="#4F46E5"/><text x="48" y="442" font-family="ui-monospace,monospace" font-size="10.5" fill="#FFFFFF">primary</text><text x="48" y="476" font-family="ui-monospace,monospace" font-size="11" fill="#FFFFFF">#4F46E5</text><rect x="150" y="422" width="104" height="64" rx="8" fill="#1E1B4B"/><text x="158" y="442" font-family="ui-monospace,monospace" font-size="10.5" fill="#FFFFFF">primary-dark</text><text x="158" y="476" font-family="ui-monospace,monospace" font-size="11" fill="#FFFFFF">#1E1B4B</text><rect x="260" y="422" width="104" height="64" rx="8" fill="#10B981"/><text x="268" y="442" font-family="ui-monospace,monospace" font-size="10.5" fill="#FFFFFF">accent</text><text x="268" y="476" font-family="ui-monospace,monospace" font-size="11" fill="#FFFFFF">#10B981</text><rect x="370" y="422" width="104" height="64" rx="8" fill="#34D399"/><text x="378" y="442" font-family="ui-monospace,monospace" font-size="10.5" fill="#1E1B4B">accent-bright</text><text x="378" y="476" font-family="ui-monospace,monospace" font-size="11" fill="#1E1B4B">#34D399</text><rect x="480" y="422" width="104" height="64" rx="8" fill="#1E1B4B"/><text x="488" y="442" font-family="ui-monospace,monospace" font-size="10.5" fill="#FFFFFF">surface-dark</text><text x="488" y="476" font-family="ui-monospace,monospace" font-size="11" fill="#FFFFFF">#1E1B4B</text><rect x="590" y="422" width="104" height="64" rx="8" fill="#EEF2FF"/><text x="598" y="442" font-family="ui-monospace,monospace" font-size="10.5" fill="#1E1B4B">surface-light</text><text x="598" y="476" font-family="ui-monospace,monospace" font-size="11" fill="#1E1B4B">#EEF2FF</text><rect x="700" y="422" width="104" height="64" rx="8" fill="#1E1B4B"/><text x="708" y="442" font-family="ui-monospace,monospace" font-size="10.5" fill="#FFFFFF">ink</text><text x="708" y="476" font-family="ui-monospace,monospace" font-size="11" fill="#FFFFFF">#1E1B4B</text><rect x="810" y="422" width="104" height="64" rx="8" fill="#64748B"/><text x="818" y="442" font-family="ui-monospace,monospace" font-size="10.5" fill="#FFFFFF">muted</text><text x="818" y="476" font-family="ui-monospace,monospace" font-size="11" fill="#FFFFFF">#64748B</text><rect x="920" y="422" width="104" height="64" rx="8" fill="#A5B4FC"/><text x="928" y="442" font-family="ui-monospace,monospace" font-size="10.5" fill="#1E1B4B">muted-dark</text><text x="928" y="476" font-family="ui-monospace,monospace" font-size="11" fill="#1E1B4B">#A5B4FC</text></svg>
